# xmcd CD database file
#
# Track frame offsets:
#	150
#	20237
#	38987
#	51412
#	79158
#	99684
#	122669
#	139942
#	160029
#	179022
#	195633
#	209486
#
# Disc length: 3052 seconds
#
# Revision: 4
# Processed by: cddbd v1.5.1PL0 Copyright (c) Steve Scherf et al.
# Submitted via: CDex 1.51
#
DISCID=b30bea0c
DTITLE=River Rascals - Greetings From Swamp City
DYEAR=2004
DGENRE=Jazz
TTITLE0=Rad Gumbo
TTITLE1=Saturday Night Fish Fry
TTITLE2=You Rascal You
TTITLE3=Mardi Gras Day
TTITLE4=Let It Roll
TTITLE5=Junco Partner
TTITLE6=Cajun Girl
TTITLE7=Good Night, Irene
TTITLE8=Going Back To New Orleans
TTITLE9=Boogie Woogie Blue Plate
TTITLE10=Sister Kate
TTITLE11=Here Comes The Big Parade
EXTD=YEAR: 2004
EXTT0=
EXTT1=
EXTT2=
EXTT3=
EXTT4=
EXTT5=
EXTT6=
EXTT7=
EXTT8=
EXTT9=
EXTT10=
EXTT11=
PLAYORDER=
